<?xml version="1.0" standalone="no"?><!DOCTYPE svg PUBLIC "-//W3C//DTD SVG 1.1//EN" "http://www.w3.org/Graphics/SVG/1.1/DTD/svg11.dtd"><svg t="1617094045827" class="icon" viewBox="0 0 1024 1024" version="1.1" xmlns="http://www.w3.org/2000/svg" p-id="6722" width="128" height="128" xmlns:xlink="http://www.w3.org/1999/xlink"><defs><style type="text/css"></style></defs><path d="M633.624438 416.842502c-136.538676 0-257.527176 66.022494-333.171957 167.789022-39.450762-95.65166-130.475176-165.600737-239.122984-173.133367l-3.957405-0.133557C25.737513 411.3646 0 437.352789 0 469.285304V911.887921c0 31.93457 25.737513 57.922759 57.372092 57.922759l3.975897-0.133557c108.645754-7.53263 199.672223-77.479652 239.106547-173.133367 75.642726 101.748035 196.633281 167.789021 333.171957 167.789022 179.613976 0 332.553484-114.090781 390.375562-273.7287-57.824132-159.670794-210.765695-273.761575-390.377617-273.761576zM83.510277 882.377929V498.799405c88.587507 19.256903 154.492882 98.657725 154.492881 191.788235s-65.921812 172.531332-154.492881 191.790289z m250.095227-191.790289c54.248907-114.927055 171.212197-190.234861 300.018934-190.234861 13.495448 0 26.840901 1.019145 40.017867 2.621832v375.20962c-13.176965 1.619125-26.522418 2.621832-40.017867 2.621832-128.806737 0-245.753589-75.291368-300.018934-190.218423z m423.547078 166.017846V524.569794c76.561189 30.898987 140.430329 89.606652 176.49079 166.017846-36.060462 76.411194-99.929602 135.135297-176.49079 166.017846z" p-id="6723" fill="#1296db"></path><path d="M829.538565 658.570881m-44.84442 0a44.844421 44.844421 0 1 0 89.688841 0 44.844421 44.844421 0 1 0-89.688841 0Z" p-id="6724" fill="#1296db"></path><path d="M396.823295 118.159141c34.49065-25.053288 1.202015-83.058237-33.722182-57.68852-41.620554 30.231201-70.799734 69.513475-60.66171 123.394586 9.170247 48.736074 52.91128 99.37688 7.966177 140.697443-31.768137 29.228494 15.599489 76.345443 47.234068 47.234068 35.591984-32.735913 47.065581-71.216844 37.194672-118.183797-10.688691-51.006547-53.011961-95.485227 1.988975-135.45378zM563.843849 118.159141c34.488596-25.053288 1.202015-83.058237-33.722183-57.68852-41.620554 30.231201-70.799734 69.513475-60.66171 123.394586 9.170247 48.736074 52.91128 99.37688 7.966177 140.697443-31.768137 29.228494 15.599489 76.345443 47.234068 47.234068 35.591984-32.735913 47.065581-71.216844 37.194672-118.183797-10.688691-51.006547-53.011961-95.485227 1.988976-135.45378zM730.862347 118.159141c34.488596-25.053288 1.202015-83.058237-33.722182-57.68852-41.620554 30.231201-70.799734 69.513475-60.661711 123.394586 9.170247 48.736074 52.91128 99.37688 7.966178 140.697443-31.768137 29.228494 15.599489 76.345443 47.234068 47.234068 35.591984-32.735913 47.065581-71.216844 37.194671-118.183797-10.686636-51.006547-53.009906-95.485227 1.988976-135.45378z" p-id="6725" fill="#1296db"></path></svg>